<?xml version="1.0" encoding="UTF-8"?>
<svg version="1.1" xmlns="http://www.w3.org/2000/svg" width="400" height="400">
<path d="M0 0 C132 0 264 0 400 0 C400 132 400 264 400 400 C268 400 136 400 0 400 C0 268 0 136 0 0 Z " fill="#FEFEFE" transform="translate(0,0)"/>
<path d="M0 0 C2.09224193 0.97559596 3.794009 1.67823856 6.0859375 1.97265625 C8.1357276 1.27241513 8.1357276 1.27241513 10.0859375 0.09765625 C17.78661291 -4.20389291 26.96833398 -4.41598003 35.42578125 -2.12109375 C46.10616706 2.08102526 51.95182363 7.75363727 57.0859375 17.97265625 C60.74443446 26.95260332 59.98158428 36.59730831 56.34375 45.4375 C52.0744119 54.04247027 45.96903374 59.35671184 37.5859375 63.84765625 C28.53157235 66.83595463 17.49176027 66.02123551 9.00390625 61.9453125 C8.37097656 61.62433594 7.73804688 61.30335938 7.0859375 60.97265625 C4.25005621 59.6747718 4.25005621 59.6747718 2.1484375 60.71484375 C1.4678125 61.08867187 0.7871875 61.4625 0.0859375 61.84765625 C-7.78459986 66.11086399 -17.12856819 66.11585139 -25.83984375 64.39453125 C-35.16289971 61.12328355 -42.45016537 53.89847227 -47.07421875 45.30859375 C-47.9140625 42.97265625 -47.9140625 42.97265625 -48.9140625 35.97265625 C-24.8240625 35.97265625 -0.7340625 35.97265625 24.0859375 35.97265625 C24.0859375 32.67265625 24.0859375 29.37265625 24.0859375 25.97265625 C-0.0040625 25.97265625 -24.0940625 25.97265625 -48.9140625 25.97265625 C-46.46228218 14.9396448 -42.42827596 7.35958911 -32.9140625 0.97265625 C-22.52649121 -4.59152615 -10.64783471 -5.06953222 0 0 Z " fill="#CCDE1C" transform="translate(194.9140625,147.02734375)"/>
<path d="M0 0 C13.2 0 26.4 0 40 0 C40.99 3.3 41.98 6.6 43 10 C44.3403946 12.53953422 44.3403946 12.53953422 45.9375 14.375 C46.45441406 15.01179687 46.97132813 15.64859375 47.50390625 16.3046875 C49.25797561 18.29232745 51.05151393 20.20139747 53 22 C52 25 52 25 50.27734375 26.16796875 C41.1377303 30.15033788 30.14157746 30.81975127 20.625 27.5625 C11.99316619 23.42853574 4.27543387 16.11027654 1 7 C0.67 4.69 0.34 2.38 0 0 Z " fill="#1810A5" transform="translate(146,183)"/>
<path d="M0 0 C0.66 0.33 1.32 0.66 2 1 C0.69886735 3.85629596 -0.71588005 5.92210213 -2.875 8.1875 C-7.22606674 13.12367352 -9.41766767 18.67067068 -11 25 C-24.2 25 -37.4 25 -51 25 C-48.54821968 13.96698855 -44.51421346 6.38693286 -35 0 C-23.71279644 -6.04607734 -11.2792886 -5.80277451 0 0 Z " fill="#1910A2" transform="translate(197,148)"/>
<path d="M0 0 C1.19947266 0.00515625 2.39894531 0.0103125 3.63476562 0.015625 C5.51518555 0.0465625 5.51518555 0.0465625 7.43359375 0.078125 C8.69107422 0.08328125 9.94855469 0.0884375 11.24414062 0.09375 C20.56275015 0.1739532 20.56275015 0.1739532 22.87109375 1.328125 C23.77793137 4.04863786 23.99951922 5.65545506 24.00390625 8.453125 C24.00583984 9.63648438 24.00583984 9.63648438 24.0078125 10.84375 C24.00394531 11.66359375 24.00007813 12.4834375 23.99609375 13.328125 C24.00189453 14.55789062 24.00189453 14.55789062 24.0078125 15.8125 C24.00652344 16.60140625 24.00523437 17.3903125 24.00390625 18.203125 C24.00277832 18.92242187 24.00165039 19.64171875 24.00048828 20.3828125 C23.87109375 22.328125 23.87109375 22.328125 22.87109375 25.328125 C18.41332884 27.55700746 12.32882605 26.55805229 7.43359375 26.578125 C6.17998047 26.59875 4.92636719 26.619375 3.63476562 26.640625 C1.83555664 26.64835937 1.83555664 26.64835937 0 26.65625 C-1.6540686 26.67026855 -1.6540686 26.67026855 -3.34155273 26.68457031 C-6.12890625 26.328125 -6.12890625 26.328125 -7.98706055 25.09277344 C-9.43940086 22.84827573 -9.51611463 21.43066904 -9.52734375 18.765625 C-9.53121094 17.88648438 -9.53507813 17.00734375 -9.5390625 16.1015625 C-9.52746094 15.18632812 -9.51585937 14.27109375 -9.50390625 13.328125 C-9.52130859 11.95527344 -9.52130859 11.95527344 -9.5390625 10.5546875 C-9.53519531 9.67554688 -9.53132812 8.79640625 -9.52734375 7.890625 C-9.52226807 6.68599609 -9.52226807 6.68599609 -9.51708984 5.45703125 C-9.12890625 3.328125 -9.12890625 3.328125 -7.98706055 1.56347656 C-5.29456572 -0.2265673 -3.21196734 -0.02722205 0 0 Z " fill="#0B0B0B" transform="translate(227.12890625,217.671875)"/>
<path d="M0 0 C6.373125 -0.061875 6.373125 -0.061875 12.875 -0.125 C14.88376221 -0.15231201 14.88376221 -0.15231201 16.93310547 -0.18017578 C17.98385254 -0.1851709 19.03459961 -0.19016602 20.1171875 -0.1953125 C21.19597168 -0.20578613 22.27475586 -0.21625977 23.38623047 -0.22705078 C26 0 26 0 28 2 C28.265625 4.75 28.265625 4.75 28.25 8 C28.25515625 9.0725 28.2603125 10.145 28.265625 11.25 C28 14 28 14 26 16 C23.375 16.625 23.375 16.625 21 17 C21.6496875 17.56589844 22.299375 18.13179687 22.96875 18.71484375 C23.8040625 19.44832031 24.639375 20.18179688 25.5 20.9375 C26.3353125 21.66839844 27.170625 22.39929688 28.03125 23.15234375 C28.6809375 23.76207031 29.330625 24.37179688 30 25 C30 25.33 30 25.66 30 26 C26.83598126 26.52733646 25.06769885 26.75208101 22 26 C19.24919638 23.87361192 16.89186993 21.58017195 14.4921875 19.06640625 C11.60855497 16.67543194 9.68557976 16.2937781 6 16 C6 19.3 6 22.6 6 26 C4.02 26 2.04 26 0 26 C0 17.42 0 8.84 0 0 Z " fill="#020202" transform="translate(131,218)"/>
<path d="M0 0 C5 0 5 0 6.5456543 1.28515625 C7.1785437 2.16494141 7.1785437 2.16494141 7.82421875 3.0625 C8.29537109 3.69414062 8.76652344 4.32578125 9.25195312 4.9765625 C9.72568359 5.64429688 10.19941406 6.31203125 10.6875 7 C12.41565783 9.37765141 14.17360928 11.69421848 16 14 C16.66 14 17.32 14 18 14 C19.76613205 11.88710658 21.42652935 9.77233306 23.0625 7.5625 C27.97192797 1.02807203 27.97192797 1.02807203 29 0 C30.65 0 32.3 0 34 0 C34 8.58 34 17.16 34 26 C32.02 26 30.04 26 28 26 C27.67 21.05 27.34 16.1 27 11 C24.03 14.96 21.06 18.92 18 23 C12.06882493 20.03441247 9.77682726 15.41345241 6 10 C5.67 15.28 5.34 20.56 5 26 C3.35 26 1.7 26 0 26 C0 17.42 0 8.84 0 0 Z " fill="#060606" transform="translate(172,218)"/>
<path d="M0 0 C7.8608671 1.12298101 7.8608671 1.12298101 11.9375 5.125 C12.77925781 5.93066406 13.62101562 6.73632812 14.48828125 7.56640625 C15.73158203 8.77103516 15.73158203 8.77103516 17 10 C18.53269075 11.36431761 20.07345721 12.71966031 21.625 14.0625 C22.73875 15.031875 23.8525 16.00125 25 17 C25.33 11.39 25.66 5.78 26 0 C27.65 0 29.3 0 31 0 C31 8.58 31 17.16 31 26 C25.3656918 26 25.03383425 25.64095869 21.25 21.9375 C16.70164602 17.62134427 11.995736 13.78709019 7 10 C6.67 15.28 6.34 20.56 6 26 C4.02 26 2.04 26 0 26 C0 17.42 0 8.84 0 0 Z " fill="#030303" transform="translate(263,218)"/>
<path d="M0 0 C2.31 0 4.62 0 7 0 C8.99651786 3.54055741 10.99027477 7.0826531 12.98144531 10.6262207 C13.659717 11.83238025 14.338752 13.03811088 15.01855469 14.2434082 C15.99352676 15.9723492 16.9655604 17.7029462 17.9375 19.43359375 C18.81728516 20.99678345 18.81728516 20.99678345 19.71484375 22.59155273 C21 25 21 25 21 26 C17.6875 26.3125 17.6875 26.3125 14 26 C13.39091797 24.77216797 13.39091797 24.77216797 12.76953125 23.51953125 C11.14611009 20.5799195 11.14611009 20.5799195 7.3125 20.3359375 C5.8750022 20.32267645 4.4370472 20.33664465 3 20.375 C2.27554688 20.35566406 1.55109375 20.33632812 0.8046875 20.31640625 C-1.58964979 20.27915586 -1.58964979 20.27915586 -5 21 C-6.84312808 23.42841988 -6.84312808 23.42841988 -8 26 C-11.1875 26.3125 -11.1875 26.3125 -14 26 C-12.65788025 22.444218 -11.07755303 19.20894833 -9.1796875 15.91796875 C-8.64472656 14.98662109 -8.10976562 14.05527344 -7.55859375 13.09570312 C-7.00300781 12.13599609 -6.44742188 11.17628906 -5.875 10.1875 C-5.31167969 9.20845703 -4.74835938 8.22941406 -4.16796875 7.22070312 C-2.78155585 4.81210445 -1.39214945 2.40528605 0 0 Z " fill="#040404" transform="translate(101,218)"/>
<path d="M0 0 C3.18359375 0.421875 3.18359375 0.421875 5.2734375 2.84375 C5.88316406 3.94203125 6.49289062 5.0403125 7.12109375 6.171875 C7.45173828 6.75227539 7.78238281 7.33267578 8.12304688 7.93066406 C8.81211782 9.14277266 9.49218846 10.36003813 10.16357422 11.58203125 C11.16153222 13.38208187 12.19620662 15.15402762 13.25 16.921875 C18.18359375 25.21429924 18.18359375 25.21429924 18.18359375 26.421875 C14.87109375 26.671875 14.87109375 26.671875 11.18359375 26.421875 C9.24609375 24.546875 9.24609375 24.546875 8.18359375 22.421875 C8.18359375 21.761875 8.18359375 21.101875 8.18359375 20.421875 C2.57359375 20.421875 -3.03640625 20.421875 -8.81640625 20.421875 C-9.47640625 22.401875 -10.13640625 24.381875 -10.81640625 26.421875 C-13.12640625 26.421875 -15.43640625 26.421875 -17.81640625 26.421875 C-4.27230531 0.63995697 -4.27230531 0.63995697 0 0 Z " fill="#030303" transform="translate(339.81640625,217.578125)"/>
<path d="M0 0 C1.98 0 3.96 0 6 0 C6 3.3 6 6.6 6 10 C12.27 10 18.54 10 25 10 C25 6.7 25 3.4 25 0 C26.98 0 28.96 0 31 0 C31 8.58 31 17.16 31 26 C29.02 26 27.04 26 25 26 C25 22.37 25 18.74 25 15 C18.73 15 12.46 15 6 15 C6 18.63 6 22.26 6 26 C4.02 26 2.04 26 0 26 C0 17.42 0 8.84 0 0 Z " fill="#000000" transform="translate(47,218)"/>
<path d="M0 0 C6.6 0 13.2 0 20 0 C20 5.28 20 10.56 20 16 C13.4 16 6.8 16 0 16 C0 10.72 0 5.44 0 0 Z " fill="#FCFCFC" transform="translate(224,223)"/>
<path d="M0 0 C1.98 0 3.96 0 6 0 C6 8.58 6 17.16 6 26 C4.02 26 2.04 26 0 26 C0 17.42 0 8.84 0 0 Z " fill="#000000" transform="translate(308,218)"/>
<path d="M0 0 C2.47923801 -0.02685095 4.9581884 -0.04676547 7.4375 -0.0625 C8.14455078 -0.07087891 8.85160156 -0.07925781 9.58007812 -0.08789062 C11.38693559 -0.09653588 13.19387603 -0.05220011 15 0 C16 1 16 1 16.125 4 C16 7 16 7 15 8 C12.46950598 8.07313567 9.96695163 8.09247527 7.4375 8.0625 C6.37112305 8.05573242 6.37112305 8.05573242 5.28320312 8.04882812 C3.52209987 8.03700864 1.76103964 8.01907263 0 8 C0 5.36 0 2.72 0 0 Z " fill="#ECECEC" transform="translate(137,222)"/>
<path d="M0 0 C10.89 0 21.78 0 33 0 C33 3.3 33 6.6 33 10 C22.44 10 11.88 10 1 10 C1 9.67 1 9.34 1 9 C10.9 9 20.8 9 31 9 C31 6.69 31 4.38 31 2 C20.77 2 10.54 2 0 2 C0 1.34 0 0.68 0 0 Z " fill="#FBFDBC" transform="translate(186,173)"/>
<path d="M0 0 C13.2 0 26.4 0 40 0 C39.67 1.32 39.34 2.64 39 4 C39 3.34 39 2.68 39 2 C26.79 2 14.58 2 2 2 C2.33 4.31 2.66 6.62 3 9 C1 7 1 7 0 0 Z " fill="#1B1483" transform="translate(146,183)"/>
<path d="M0 0 C10.56 0 21.12 0 32 0 C32 0.66 32 1.32 32 2 C22.43 2.33 12.86 2.66 3 3 C3.33 5.64 3.66 8.28 4 11 C2 10 2 10 0.875 7.1875 C0 4 0 4 0 0 Z " fill="#C7D54A" transform="translate(186,183)"/>
<path d="M0 0 C2.94678433 2.94678433 4.32041919 5.24093818 6 9 C6 9.66 6 10.32 6 11 C2.37 11 -1.26 11 -5 11 C-3.35 7.37 -1.7 3.74 0 0 Z " fill="#F5F5F5" transform="translate(339,223)"/>
<path d="M0 0 C0.66 0 1.32 0 2 0 C3.65 3.3 5.3 6.6 7 10 C3.04 10 -0.92 10 -5 10 C-3.35 6.7 -1.7 3.4 0 0 Z " fill="#F8F8F8" transform="translate(103,224)"/>
<path d="M0 0 C0.66 0.33 1.32 0.66 2 1 C-0.98784705 5.48177058 -4.90972876 6.58498378 -10 8 C-13.8985866 8.43097295 -17.70926612 8.38592668 -21.625 8.25 C-22.62917969 8.23195312 -23.63335937 8.21390625 -24.66796875 8.1953125 C-27.11302652 8.14873997 -29.55596812 8.08337028 -32 8 C-32 7.34 -32 6.68 -32 6 C-31.16190796 6.0314209 -31.16190796 6.0314209 -30.30688477 6.06347656 C-27.72561327 6.14766294 -25.14463176 6.19897693 -22.5625 6.25 C-21.24475586 6.30027344 -21.24475586 6.30027344 -19.90039062 6.3515625 C-12.06074279 6.46727686 -6.47816185 4.31877457 0 0 Z " fill="#FBFDCA" transform="translate(240,205)"/>
<path d="M0 0 C0.33 0 0.66 0 1 0 C1.33 2.31 1.66 4.62 2 7 C15.86 7.495 15.86 7.495 30 8 C30 8.33 30 8.66 30 9 C19.44 9 8.88 9 -2 9 C-1 2 -1 2 0 0 Z " fill="#C7D24D" transform="translate(188,164)"/>
<path d="M0 0 C1.17825358 0.90172468 2.34231577 1.82201502 3.5 2.75 C4.1496875 3.26046875 4.799375 3.7709375 5.46875 4.296875 C7 6 7 6 7 10 C0.375 13 0.375 13 -3 13 C-3 12.34 -3 11.68 -3 11 C-1.35 11 0.3 11 2 11 C2 10.34 2 9.68 2 9 C2.66 9 3.32 9 4 9 C2.80023567 5.91489173 1.49997444 2.94952958 0 0 Z " fill="#282478" transform="translate(191,198)"/>
<path d="M0 0 C6.15234375 -0.09765625 6.15234375 -0.09765625 8 0 C8.33 0.33 8.66 0.66 9 1 C11.69654854 1.07319621 14.36691458 1.09242537 17.0625 1.0625 C18.20041992 1.05573242 18.20041992 1.05573242 19.36132812 1.04882812 C21.24091871 1.0370068 23.12046899 1.01907078 25 1 C21.30354642 3.46430239 18.46054401 3.29648824 14.1875 3.25 C13.48818359 3.25773438 12.78886719 3.26546875 12.06835938 3.2734375 C7.66820218 3.25697293 4.08662968 2.61668867 0 1 C0 0.67 0 0.34 0 0 Z " fill="#CDDA46" transform="translate(206,209)"/>
<path d="M0 0 C-0.47241991 4.25177923 -2.84964071 6.29969203 -6 9 C-6.99 9 -7.98 9 -9 9 C-7.45665977 5.21180126 -4.44676575 0 0 0 Z " fill="#C8D646" transform="translate(201,150)"/>
<path d="M0 0 C1.98 0.66 3.96 1.32 6 2 C4.25 5.875 4.25 5.875 2 7 C2 5.35 2 3.7 2 2 C1.34 2 0.68 2 0 2 C0 1.34 0 0.68 0 0 Z " fill="#1E1974" transform="translate(193,147)"/>
</svg>
